<svg xmlns="http://www.w3.org/2000/svg" viewBox="0 0 2217 543" width="1108" height="271">
<title>Rukebox</title>
<defs><linearGradient id="chrome" x1="0" y1="0" x2="0" y2="1"><stop offset="0" stop-color="#FFFFFF"/><stop offset="0.55" stop-color="#E4EAF2"/><stop offset="1" stop-color="#AFC0D6"/></linearGradient></defs>
<path fill="#13284F" fill-rule="evenodd" d="M1375.5 530.9C1351.7 528.6 1335.9 518.0 1326.2 497.8C1321.4 488.1 1319.0 478.0 1318.3 465.8C1318.0 459.3 1317.3 453.7 1316.8 453.4C1316.3 453.1 1308.9 457.5 1300.2 463.3C1268.9 484.1 1243.4 497.9 1218.0 507.6C1214.4 509.0 1210.0 510.8 1208.1 511.6C1201.6 514.5 1186.4 519.2 1174.5 522.0C1158.8 525.8 1141.7 527.4 1125.5 526.7C1110.7 526.0 1103.2 523.9 1090.5 516.6C1077.6 509.2 1063.5 492.7 1057.7 478.1C1054.8 470.8 1051.0 459.1 1051.0 457.4C1051.0 454.6 1048.1 454.9 1042.8 458.3C1034.1 463.9 1010.3 478.3 997.5 485.7C980.8 495.4 971.3 500.3 958.0 506.1C951.7 508.9 945.1 511.8 943.5 512.5C925.7 520.4 901.1 525.8 879.1 526.7C854.1 527.6 842.4 524.7 833.1 515.1C826.1 507.9 823.5 500.4 823.6 487.5C823.6 482.0 823.6 473.7 823.6 469.0C823.6 438.6 823.6 438.6 826.0 430.5C828.0 423.5 833.2 412.2 837.8 405.2C840.4 401.3 838.1 401.5 833.9 405.6C828.5 410.8 805.4 439.7 794.9 454.3C759.8 503.3 748.7 515.3 730.6 524.0C724.9 526.7 714.3 527.7 708.3 526.1C701.7 524.3 699.5 520.4 699.5 510.5C699.5 506.1 699.9 501.0 700.3 499.2C701.1 496.3 700.9 496.0 699.0 496.0C697.8 496.0 695.5 496.9 694.0 498.0C683.2 505.7 655.1 518.7 638.6 523.7C630.7 526.1 627.8 526.4 616.0 526.5C602.8 526.5 602.4 526.4 596.5 523.4C589.1 519.5 584.7 514.1 581.9 505.2C580.1 499.2 579.9 496.6 580.2 481.5C580.5 464.9 580.5 464.5 578.4 464.2C577.0 464.0 575.7 464.8 574.5 466.7C571.7 471.0 557.3 485.6 549.5 491.9C520.3 515.8 490.4 527.0 456.0 527.0C444.0 527.0 435.3 525.6 426.7 522.4C410.0 516.0 401.9 506.1 399.4 488.7C398.7 483.3 397.7 482.3 395.1 484.2C375.3 498.5 376.7 497.6 364.9 504.2C333.5 521.8 297.2 529.2 272.7 522.9C246.9 516.3 223.3 495.6 201.7 460.6C195.8 451.2 185.7 431.6 180.6 419.8C179.7 417.7 178.4 414.5 177.6 412.8C173.5 403.6 166.4 384.3 161.9 370.0C159.7 363.0 157.6 360.0 156.1 361.5C155.7 362.1 149.8 377.8 143.0 396.5C136.3 415.2 129.4 433.9 127.8 438.0C126.1 442.1 124.0 447.5 123.0 450.0C106.0 493.3 89.2 518.7 71.6 527.7C65.5 530.9 52.0 532.0 43.4 530.1C36.5 528.5 29.8 522.7 26.2 515.1C23.8 510.0 23.6 508.4 23.6 497.5C23.7 490.9 23.8 483.2 23.9 480.5C24.0 477.8 23.8 470.5 23.5 464.3C22.9 454.4 23.0 452.2 25.0 445.8C26.8 439.8 37.5 418.4 47.3 401.1C51.6 393.4 54.0 389.0 61.0 376.0C65.0 368.6 68.6 362.1 69.0 361.5C69.4 360.9 71.9 356.4 74.5 351.5C77.1 346.6 81.0 339.4 83.1 335.7C85.3 331.9 87.0 328.6 87.0 328.3C87.0 328.1 88.7 324.8 90.9 321.2C93.0 317.5 96.9 310.4 99.5 305.5C102.1 300.6 104.6 296.1 105.0 295.5C105.8 294.4 112.5 282.2 114.8 277.5C115.7 275.9 116.6 274.3 116.9 274.0C117.2 273.7 118.8 270.8 120.5 267.5C128.0 252.2 151.1 213.3 164.6 193.0C180.1 169.6 195.7 152.0 206.9 144.9C210.7 142.6 212.6 142.0 217.6 142.0C224.6 142.0 228.9 144.3 232.7 149.9C235.8 154.4 235.9 166.1 233.0 174.5C231.0 180.2 231.0 180.3 233.0 184.8C235.8 191.0 235.6 201.2 232.6 211.5C229.0 223.8 219.6 247.5 212.3 262.8C207.9 271.8 211.4 272.6 232.0 267.4C255.5 261.5 277.4 248.6 297.4 228.8C304.0 222.3 309.7 217.0 310.2 217.0C310.6 217.0 311.0 215.9 311.0 214.6C311.0 213.3 311.6 212.0 312.3 211.7C314.0 211.1 321.6 199.6 326.8 190.0C330.7 182.8 338.0 162.5 338.0 159.0C338.0 156.5 334.4 146.3 331.3 140.0C328.4 134.2 314.7 119.0 312.4 119.0C311.6 119.0 311.0 118.4 311.0 117.8C310.9 116.2 294.0 107.9 285.2 105.0C258.2 96.2 210.6 97.0 180.0 106.7C156.8 114.0 140.1 123.7 126.0 138.1C114.8 149.5 109.9 156.6 88.9 192.4C80.8 206.1 69.5 218.5 61.3 222.6C56.0 225.2 54.6 225.5 44.5 225.5C31.6 225.5 27.0 224.0 20.2 217.6C12.8 210.5 10.2 197.1 13.4 182.2C14.6 176.8 14.6 175.1 13.4 170.7C5.1 139.5 34.5 93.2 84.5 58.9C96.8 50.4 119.6 38.6 135.5 32.5C150.6 26.7 152.8 26.0 161.0 23.6C194.0 14.3 228.7 10.6 260.5 13.0C280.9 14.5 305.8 19.4 319.0 24.5C343.3 33.8 359.1 43.1 374.1 56.8C381.2 63.5 392.7 77.0 395.4 82.1C396.1 83.4 397.8 86.5 399.1 89.0C404.9 99.8 409.5 114.8 411.0 127.5C412.2 138.8 412.3 191.0 411.0 200.9C408.2 222.1 397.5 245.5 381.1 265.8C378.3 269.2 376.0 272.5 376.0 273.0C376.0 273.6 375.4 274.0 374.6 274.0C373.8 274.0 372.9 274.9 372.5 276.0C370.5 282.2 324.7 318.7 313.6 323.0C312.2 323.5 311.0 324.4 311.0 325.0C311.0 325.5 310.5 326.0 309.9 326.0C309.3 326.0 302.0 329.4 293.7 333.5C285.3 337.6 276.5 341.6 274.0 342.5C256.9 348.6 243.6 352.9 238.7 354.0C230.1 355.7 230.1 354.8 239.8 377.0C248.3 396.2 257.1 410.0 268.0 421.1C281.1 434.4 290.4 437.2 314.2 435.1C330.1 433.7 339.2 431.3 353.4 424.6C369.8 416.9 379.0 410.2 395.5 393.6C403.8 385.3 412.8 377.1 415.5 375.5C421.1 372.0 420.4 373.1 427.2 357.0C432.9 343.5 450.1 308.5 457.4 295.5C459.9 291.1 463.4 284.6 465.2 281.0C467.0 277.4 468.7 274.3 469.0 274.0C469.3 273.7 470.9 271.2 472.5 268.5C477.1 260.5 484.6 253.3 491.9 249.8C497.6 247.0 499.6 246.6 506.5 246.5C518.5 246.5 528.4 250.9 533.1 258.4C536.0 262.9 535.3 270.7 531.2 278.9C527.4 286.5 527.4 287.1 530.1 289.6C535.6 294.6 536.5 302.6 532.4 311.5C529.8 317.2 523.3 328.4 510.3 349.3C506.3 355.8 503.0 361.3 503.0 361.6C503.0 361.8 501.5 364.4 499.6 367.3C495.2 374.1 484.8 394.3 480.9 403.5C479.2 407.3 477.5 411.4 477.0 412.5C473.6 419.8 471.4 427.7 472.0 429.6C473.9 434.7 487.4 435.3 502.0 431.0C535.6 421.0 573.2 382.7 604.7 326.5C610.1 316.8 617.9 301.4 619.4 297.3C622.0 290.1 628.4 274.5 629.0 274.0C629.3 273.7 630.8 271.0 632.4 267.9C640.3 252.6 648.9 246.0 660.9 246.0C668.1 246.0 672.4 247.7 677.8 252.6C686.4 260.2 688.6 270.7 684.2 282.3C681.5 289.4 681.5 290.0 684.2 295.8C687.0 301.9 686.9 309.6 684.1 318.0C682.8 321.6 677.1 333.9 671.3 345.5C648.1 391.4 644.7 398.4 640.4 408.8C633.1 426.2 630.4 434.9 631.6 436.8C633.4 439.5 638.8 440.3 647.7 439.1C665.0 436.7 687.6 425.4 713.0 406.6C722.3 399.7 731.0 391.6 731.0 390.0C731.0 389.5 733.1 384.7 735.6 379.3C738.2 373.9 742.0 365.7 744.2 361.0C753.7 340.8 755.6 336.8 761.5 324.5C765.0 317.4 771.7 303.5 776.4 293.7C781.1 283.9 785.0 275.5 785.0 275.0C785.0 274.4 785.5 274.0 786.0 274.0C786.5 274.0 787.0 273.5 787.0 272.8C787.0 272.1 791.5 262.6 796.9 251.5C802.4 240.5 812.9 219.1 820.3 204.0C827.7 188.9 839.0 165.7 845.5 152.5C852.0 139.3 863.7 115.4 871.5 99.4C879.3 83.4 887.2 68.7 888.9 66.7C893.2 61.9 902.3 56.0 909.0 53.7C915.4 51.5 927.4 51.1 933.8 52.9C939.7 54.5 945.7 60.2 947.1 65.3C948.4 70.3 947.6 77.9 944.9 83.9C942.4 89.6 942.5 92.4 945.2 96.1C947.1 98.6 947.5 100.4 947.5 106.4C947.4 114.8 945.8 119.0 936.9 134.8C933.6 140.5 931.0 145.3 931.0 145.5C931.0 145.7 928.4 150.5 925.2 156.2C918.6 167.8 898.2 208.4 892.2 221.7C887.2 232.6 876.4 256.3 872.2 265.2C870.4 268.9 869.0 272.4 869.0 273.0C869.0 273.5 868.5 274.0 868.0 274.0C866.7 274.0 866.7 277.7 868.0 278.5C868.5 278.8 870.1 278.0 871.5 276.6C872.9 275.1 875.0 274.0 876.0 274.0C877.1 274.0 878.0 273.4 878.0 272.7C878.0 270.3 901.8 257.1 914.1 252.7C927.0 248.1 935.4 246.7 950.0 246.7C961.4 246.7 965.0 247.1 973.1 249.3C988.6 253.4 999.7 259.8 1005.8 268.1C1007.6 270.5 1009.4 273.0 1009.9 273.6C1010.4 274.2 1011.6 278.8 1012.5 283.9C1014.1 292.2 1014.2 294.2 1013.0 302.6C1012.0 310.2 1012.0 313.8 1013.0 321.2C1014.1 329.3 1014.1 331.8 1012.5 341.0C1009.4 360.1 1002.1 373.1 985.2 389.9C975.0 400.1 967.9 405.4 946.5 418.7C945.4 419.4 942.8 420.7 940.8 421.6C937.0 423.3 935.6 426.0 938.5 426.0C941.1 426.0 967.8 413.2 984.5 403.9C990.5 400.5 997.3 396.8 999.5 395.6C1014.2 387.6 1054.4 363.3 1056.3 361.3C1057.2 360.2 1060.4 354.5 1063.5 348.4C1073.3 329.1 1082.5 316.4 1099.2 299.6C1105.7 293.0 1111.0 287.3 1111.0 286.8C1111.0 286.4 1111.5 286.0 1112.1 286.0C1113.7 286.0 1127.0 276.0 1127.0 274.9C1127.0 274.4 1128.3 274.0 1130.0 274.0C1131.9 274.0 1133.0 273.5 1133.0 272.6C1133.0 271.5 1154.8 259.8 1163.5 256.3C1169.1 254.0 1179.6 251.0 1189.6 248.9C1203.4 245.9 1232.5 245.6 1241.5 248.4C1258.6 253.7 1268.9 264.6 1273.0 282.0C1274.7 289.0 1274.7 300.0 1273.1 306.8C1272.0 311.0 1272.0 313.0 1273.1 317.2C1278.4 339.5 1268.1 365.9 1246.1 386.3C1230.6 400.6 1202.2 418.9 1178.5 429.9C1167.3 435.1 1166.8 435.4 1166.6 436.5C1166.2 440.4 1190.4 434.8 1212.8 426.1C1215.6 424.9 1220.1 423.2 1222.8 422.1C1239.3 415.6 1275.4 397.6 1294.0 386.4C1310.4 376.7 1319.8 372.0 1323.1 372.0C1326.4 372.0 1328.1 369.9 1330.9 361.9C1332.0 359.0 1335.6 349.8 1339.0 341.5C1342.4 333.2 1346.0 324.5 1347.0 322.0C1350.3 313.6 1353.7 305.5 1356.9 298.0C1362.4 285.2 1362.4 285.4 1370.0 268.5C1371.8 264.6 1377.6 251.6 1383.0 239.5C1388.4 227.4 1394.1 214.6 1395.8 211.0C1397.4 207.4 1399.7 202.2 1400.9 199.5C1402.1 196.8 1403.5 193.7 1404.0 192.8C1404.6 191.8 1410.4 179.0 1416.9 164.3C1423.4 149.5 1430.1 134.6 1431.8 131.0C1433.4 127.4 1435.8 122.2 1437.0 119.5C1438.2 116.8 1440.7 111.3 1442.5 107.5C1444.3 103.7 1448.8 93.5 1452.6 85.0C1458.4 71.8 1460.2 68.7 1464.5 64.5C1474.6 54.6 1487.7 50.1 1501.0 52.0C1509.1 53.1 1512.3 54.6 1516.2 58.7C1519.7 62.4 1521.0 66.0 1521.0 72.4C1521.0 77.4 1518.7 86.5 1516.9 88.5C1515.7 89.8 1515.8 93.7 1517.0 94.5C1519.0 95.7 1521.2 102.5 1521.1 107.3C1521.1 113.7 1518.8 120.3 1512.2 133.0C1505.8 145.3 1489.2 178.4 1482.7 192.0C1475.0 208.0 1467.0 225.2 1467.0 225.6C1467.0 225.8 1465.2 229.7 1463.1 234.2C1444.9 272.7 1445.3 271.5 1453.5 266.5C1474.8 253.7 1494.2 247.3 1515.0 246.3C1528.0 245.7 1535.0 247.0 1545.8 252.0C1555.7 256.6 1570.0 269.0 1570.0 272.9C1570.0 273.5 1570.4 274.0 1570.8 274.0C1572.0 274.0 1576.5 283.4 1578.1 289.0C1578.8 291.6 1579.2 297.9 1579.1 304.0C1578.8 318.7 1578.8 324.8 1579.0 338.5C1579.2 349.2 1578.9 351.6 1576.2 361.0C1572.0 375.7 1569.4 384.0 1567.9 387.7C1565.3 394.0 1568.6 394.7 1586.5 391.4C1594.7 389.8 1610.7 385.3 1612.5 383.9C1613.0 383.5 1615.4 382.7 1617.7 382.1C1623.7 380.5 1627.2 377.1 1629.4 370.9C1639.7 341.3 1656.8 313.1 1676.5 293.5C1691.1 278.8 1696.7 274.0 1699.2 274.0C1700.2 274.0 1701.0 273.4 1701.0 272.8C1701.0 271.3 1715.9 262.3 1725.0 258.2C1742.7 250.3 1760.4 246.7 1781.5 246.6C1800.4 246.6 1811.3 248.8 1828.0 256.2C1834.6 259.1 1845.8 266.9 1848.9 270.7C1850.3 272.5 1852.0 274.0 1852.5 274.0C1853.0 274.0 1854.3 275.5 1855.2 277.3C1863.8 293.7 1866.0 304.2 1864.3 321.0C1863.7 327.0 1863.6 333.7 1864.1 336.6C1865.2 343.6 1865.2 352.7 1864.0 359.3C1862.4 367.4 1863.5 369.0 1870.6 369.0C1879.9 369.0 1894.0 363.0 1904.7 354.4C1907.0 352.5 1909.3 351.0 1909.9 351.0C1910.5 351.0 1911.0 350.3 1911.0 349.5C1911.0 348.7 1911.6 348.0 1912.2 348.0C1914.3 348.0 1936.9 327.0 1947.9 314.9C1963.1 298.1 1964.4 297.0 1968.5 297.0C1971.1 297.0 1972.8 297.8 1975.4 300.5C1977.4 302.4 1979.4 304.0 1980.0 304.0C1980.6 304.0 1981.0 299.6 1981.0 292.2C1981.1 273.0 1983.5 265.4 1992.3 257.3C2000.5 249.7 2016.8 247.7 2028.5 252.9C2035.2 255.9 2037.6 258.3 2040.2 264.9C2042.2 270.0 2042.4 272.5 2042.7 294.5C2043.1 320.1 2043.3 323.0 2045.3 323.0C2046.0 323.0 2050.4 319.7 2055.1 315.8C2059.8 311.8 2071.7 301.8 2081.5 293.5C2091.4 285.2 2100.5 277.5 2101.8 276.2C2103.0 275.0 2104.4 274.0 2104.9 274.0C2105.3 274.0 2107.8 271.9 2110.4 269.4C2117.4 262.7 2129.3 255.3 2136.7 253.0C2153.3 247.9 2169.5 253.3 2171.6 264.6C2172.5 269.7 2170.4 276.1 2165.9 281.5C2163.8 284.1 2162.0 286.8 2162.0 287.5C2162.0 288.2 2163.5 289.7 2165.3 290.8C2171.3 294.3 2173.5 302.4 2170.6 309.5C2167.9 315.8 2161.8 321.5 2120.1 356.5C2114.8 360.9 2104.2 369.9 2096.5 376.4C2088.8 382.9 2076.3 393.4 2068.8 399.7C2061.3 406.0 2054.9 411.7 2054.7 412.4C2053.9 414.4 2055.5 431.3 2056.7 433.5C2059.7 439.1 2064.3 440.5 2073.8 438.9C2085.9 436.8 2094.8 432.8 2118.8 418.5C2123.9 415.5 2134.4 408.1 2150.4 396.5C2182.0 373.5 2181.4 373.8 2188.6 373.2C2196.8 372.6 2200.4 374.1 2203.5 379.5C2207.4 386.0 2206.3 397.8 2201.2 405.7C2199.9 407.7 2200.1 408.4 2202.9 413.3C2205.3 417.6 2206.0 419.9 2206.0 424.2C2206.0 430.1 2203.1 438.8 2198.8 445.5C2195.3 451.0 2184.0 461.4 2174.5 467.9C2163.6 475.3 2136.9 493.2 2134.5 494.7C2092.1 520.9 2071.3 528.1 2042.5 526.7C2026.3 525.9 2016.4 522.3 2007.1 513.6C2001.4 508.2 1996.8 501.0 1994.1 493.0C1991.9 486.5 1988.5 463.7 1989.5 462.1C1989.7 461.6 1989.3 460.7 1988.5 460.0C1986.6 458.4 1988.3 457.1 1957.9 483.5C1907.4 527.3 1908.8 526.4 1892.9 526.5C1883.5 526.5 1883.2 526.4 1877.8 522.8C1872.4 519.2 1868.0 512.7 1868.0 508.3C1868.1 505.1 1871.8 498.1 1875.4 494.5C1877.4 492.5 1879.0 490.5 1879.0 490.0C1879.0 489.5 1877.4 487.9 1875.5 486.3C1873.6 484.7 1871.1 481.3 1869.9 478.6C1868.1 474.4 1867.9 473.2 1868.9 470.0C1869.5 467.9 1871.3 464.6 1873.0 462.5C1877.6 456.7 1877.1 456.0 1868.8 456.0C1857.5 456.0 1844.4 452.2 1838.9 447.4C1836.4 445.2 1834.6 446.5 1827.8 455.8C1807.5 484.0 1775.8 507.9 1745.0 518.3C1718.5 527.3 1686.7 529.5 1668.8 523.6C1650.3 517.5 1636.1 506.5 1627.2 491.3C1624.6 486.9 1621.8 478.6 1619.6 468.8C1618.9 465.6 1616.5 465.2 1612.2 467.4C1607.5 469.8 1594.8 473.8 1584.0 476.1C1575.1 478.1 1570.7 478.5 1554.5 478.5C1535.9 478.5 1535.4 478.4 1529.7 475.8C1526.5 474.3 1522.6 472.2 1521.0 471.0C1519.5 469.9 1517.6 469.0 1516.9 469.0C1516.2 469.0 1510.5 474.2 1504.3 480.5C1472.7 512.5 1442.8 527.6 1404.3 530.9C1390.8 532.1 1388.5 532.1 1375.5 530.9ZM1437.0 431.5C1462.2 424.0 1488.0 401.5 1502.5 374.6C1506.6 367.0 1511.0 355.3 1511.0 352.0C1511.0 349.3 1507.8 343.0 1505.2 340.7C1500.0 336.0 1488.2 334.8 1473.5 337.4C1439.3 343.6 1401.5 377.1 1388.9 412.2L1386.5 419.0 L1389.0 423.6C1391.8 428.8 1397.1 432.7 1403.3 434.0C1410.5 435.6 1427.8 434.3 1437.0 431.5ZM1738.4 431.1C1761.5 422.2 1784.0 396.7 1792.5 369.8C1795.2 361.3 1795.1 359.3 1791.7 352.5C1788.8 346.5 1785.2 343.2 1779.3 341.0C1769.9 337.5 1753.6 339.0 1741.5 344.5C1725.8 351.6 1709.0 367.9 1699.6 385.1C1689.9 402.9 1688.7 413.0 1695.2 423.1C1699.0 429.1 1704.1 432.9 1709.9 434.1C1716.8 435.6 1730.5 434.1 1738.4 431.1ZM866.0 375.5C866.7 374.7 867.6 374.0 867.9 374.0C868.3 374.0 876.3 368.9 885.8 362.8C895.2 356.6 906.6 349.1 911.2 346.2C915.8 343.3 920.8 339.9 922.4 338.6C925.2 336.2 925.2 334.0 922.4 334.0C919.9 334.0 906.8 340.7 898.6 346.2C894.3 349.1 889.6 352.2 888.3 353.1C881.8 357.5 863.0 374.8 863.0 376.4C863.0 377.5 864.8 377.0 866.0 375.5ZM1979.6 367.5C1980.0 366.1 1979.9 364.6 1979.6 364.2C1978.5 363.1 1975.5 365.6 1975.2 367.9C1974.7 371.1 1978.8 370.8 1979.6 367.5ZM1165.3 351.7C1176.4 344.3 1187.3 337.3 1189.5 336.0C1204.3 327.2 1202.9 323.2 1186.8 328.3C1177.2 331.4 1167.1 337.4 1158.8 344.9C1148.8 354.1 1141.1 365.0 1144.6 365.0C1144.9 365.0 1154.2 359.0 1165.3 351.7ZM1979.8 333.5C1980.2 328.9 1978.9 327.2 1976.6 329.5C1974.7 331.4 1974.5 335.1 1976.2 336.8C1978.2 338.8 1979.5 337.6 1979.8 333.5Z"/>
<path fill="url(#chrome)" fill-rule="evenodd" stroke="#13284F" stroke-opacity="0.45" stroke-width="8.64" stroke-linejoin="round" paint-order="stroke" d="M1376.0 496.0C1360.7 494.2 1346.7 488.4 1338.6 480.5C1326.0 468.3 1318.0 446.7 1318.0 424.9L1318.0 416.1 L1302.8 426.4C1270.6 448.1 1245.5 461.5 1214.0 474.0C1184.6 485.6 1162.3 490.8 1137.3 491.7C1116.8 492.5 1105.2 489.9 1090.5 481.4C1071.9 470.5 1056.4 447.9 1052.0 425.2C1051.2 421.4 1050.3 419.1 1049.6 419.3C1049.0 419.6 1040.2 424.8 1030.0 431.1C968.4 468.7 938.4 482.4 902.0 489.2C892.8 491.0 886.8 491.4 872.0 491.4C851.9 491.4 847.6 490.6 838.1 484.6C833.0 481.3 825.3 471.2 824.3 466.2C822.8 459.2 823.5 439.0 825.4 432.0C827.9 423.1 832.1 414.0 833.7 414.0C834.4 414.0 835.0 413.1 835.0 412.1C835.0 407.7 840.9 399.1 851.0 388.6C856.8 382.7 862.4 377.4 863.5 376.9C864.6 376.4 866.3 375.4 867.4 374.8C875.7 369.2 904.6 350.4 911.6 346.0C922.5 339.1 937.8 324.4 941.1 317.5C944.5 310.5 944.5 301.6 941.1 298.9C936.6 295.3 923.0 297.4 910.5 303.8C880.1 319.1 833.6 365.7 793.5 421.0C764.6 460.9 756.8 470.3 744.5 480.3C731.7 490.6 715.3 494.9 706.0 490.2C700.4 487.5 698.8 483.1 699.4 473.0C699.6 468.3 700.3 463.2 701.0 461.6C701.6 460.0 701.9 458.6 701.8 458.5C701.6 458.3 697.9 460.4 693.5 463.2C674.3 475.1 646.1 487.1 628.8 490.6C611.7 494.1 594.1 490.3 587.8 481.9C584.2 477.1 581.0 470.5 581.0 467.7C581.0 466.5 580.6 465.0 580.2 464.5C578.9 463.0 580.6 436.8 582.5 428.3C583.4 424.2 584.0 420.6 583.7 420.4C583.5 420.2 581.6 422.6 579.5 425.7C571.6 437.8 546.2 460.8 530.5 470.2C506.2 484.7 486.7 490.6 460.0 491.7C447.4 492.2 444.3 492.0 436.5 490.1C413.4 484.6 402.7 474.3 399.9 454.8L398.6 446.1 L394.6 449.4C379.3 461.8 352.9 476.2 334.0 482.4C319.2 487.3 309.4 489.1 295.4 489.7C280.2 490.4 271.1 488.6 258.5 482.5C221.0 464.4 189.9 417.7 163.7 340.2C160.6 331.3 157.9 323.8 157.5 323.7C157.1 323.6 155.8 326.4 154.5 330.0C137.7 376.7 124.9 410.5 116.5 430.5C112.3 440.5 106.5 452.0 102.2 458.9C90.7 477.7 81.9 487.2 71.1 492.6C66.0 495.3 64.6 495.5 54.5 495.5C44.6 495.5 43.0 495.2 38.0 492.8C31.8 489.7 26.4 482.8 24.3 475.0C22.3 467.7 22.7 453.3 25.1 445.4C26.8 439.7 37.8 417.8 47.3 401.1C51.6 393.4 54.0 389.0 61.0 376.0C65.0 368.6 68.6 362.1 69.0 361.5C69.4 360.9 71.9 356.4 74.5 351.5C77.1 346.6 81.0 339.4 83.1 335.7C85.3 331.9 87.0 328.6 87.0 328.3C87.0 328.1 88.7 324.8 90.9 321.2C93.0 317.5 96.9 310.4 99.5 305.5C102.1 300.6 104.6 296.1 105.0 295.5C105.8 294.4 112.5 282.2 114.8 277.5C115.7 275.9 116.6 274.3 116.9 274.0C117.2 273.7 118.8 270.8 120.5 267.5C128.0 252.2 151.1 213.3 164.6 193.0C180.1 169.6 195.7 152.0 206.9 144.9C210.7 142.6 212.6 142.0 217.6 142.0C224.6 142.0 228.9 144.3 232.7 149.9C235.8 154.4 235.9 166.1 233.0 174.4C231.9 177.6 231.1 180.5 231.2 180.8C231.3 181.2 230.9 182.4 230.5 183.5C230.1 184.6 227.7 190.6 225.3 196.9C220.5 209.6 214.9 222.5 201.9 250.8C197.0 261.4 193.0 270.5 193.0 271.0C193.0 271.9 199.8 271.7 215.0 270.5C242.6 268.4 272.9 253.0 297.4 228.8C304.0 222.3 309.7 217.0 310.2 217.0C310.6 217.0 311.0 215.9 311.0 214.6C311.0 213.3 311.6 212.0 312.3 211.7C314.0 211.1 321.6 199.6 326.8 190.0C331.5 181.2 338.1 161.9 337.9 157.6C337.8 155.9 338.2 153.2 338.9 151.7C340.6 147.5 340.2 134.6 338.1 124.4C332.1 95.3 312.4 77.0 277.2 67.8C266.2 64.9 264.1 64.7 243.0 64.2C217.5 63.7 205.7 64.7 188.4 69.0C165.2 74.8 144.1 85.6 129.7 99.0C119.2 108.8 110.0 121.3 96.9 143.5C90.8 153.9 83.8 165.2 81.5 168.5C75.5 176.9 67.0 184.6 60.3 187.8C55.1 190.2 53.3 190.5 44.0 190.5C34.8 190.5 32.8 190.2 28.0 187.9C20.0 184.2 15.5 179.0 13.6 171.3C7.7 148.1 20.1 118.6 47.6 90.0C67.7 69.2 89.6 53.6 117.0 40.6C127.4 35.7 131.8 33.9 147.5 28.0C178.0 16.4 224.4 10.2 260.5 13.0C280.9 14.5 305.8 19.4 319.0 24.5C343.3 33.8 359.1 43.1 374.1 56.8C381.2 63.5 392.7 77.0 395.4 82.1C396.1 83.4 397.8 86.5 399.1 89.0C401.9 94.2 406.1 105.1 408.4 113.0C410.7 121.2 412.0 134.7 412.0 151.3C412.0 167.0 410.6 174.4 404.6 190.3C385.0 242.3 326.0 291.1 254.9 313.9C245.3 317.0 232.5 320.3 225.8 321.4C223.7 321.8 222.0 322.6 222.0 323.1C222.0 324.9 226.8 342.1 229.4 349.9C230.9 354.2 231.7 358.3 231.4 359.6C230.9 361.4 231.2 362.0 232.4 362.0C233.3 362.0 234.3 363.2 234.7 364.8C235.6 368.4 243.6 385.9 247.9 393.5C254.2 404.8 260.5 413.5 268.0 421.1C281.1 434.4 290.4 437.2 314.2 435.1C330.1 433.7 339.2 431.3 353.4 424.6C369.8 416.9 379.0 410.2 395.5 393.6C403.8 385.3 412.8 377.1 415.5 375.5C421.1 372.0 420.4 373.1 427.2 357.0C432.9 343.5 450.1 308.5 457.4 295.5C459.9 291.1 463.4 284.6 465.2 281.0C467.0 277.4 468.7 274.3 469.0 274.0C469.3 273.7 470.9 271.2 472.5 268.5C477.1 260.5 484.6 253.3 491.9 249.8C497.6 247.0 499.6 246.6 506.5 246.5C518.5 246.5 528.4 250.9 533.1 258.4C536.1 263.0 535.3 270.7 531.0 279.5C529.1 283.4 527.3 286.7 527.0 287.0C526.7 287.3 524.1 291.3 521.3 296.0C518.5 300.7 511.6 312.1 506.0 321.5C482.8 359.8 472.1 384.5 468.4 408.2C467.0 416.8 467.0 419.2 468.1 423.7C469.2 428.5 469.8 429.4 473.7 431.7C477.8 434.1 478.8 434.2 486.3 433.8C504.7 432.6 521.0 424.9 541.8 407.6C566.3 387.2 591.5 353.0 613.0 310.8C615.8 305.4 618.6 299.4 619.4 297.3C622.0 290.1 628.4 274.5 629.0 274.0C629.3 273.7 630.8 271.0 632.4 267.9C640.3 252.6 648.9 246.0 660.9 246.0C668.1 246.0 672.4 247.7 677.8 252.6C686.6 260.4 688.4 269.7 684.0 283.0C682.6 287.1 681.2 290.9 680.8 291.5C678.6 294.5 645.5 361.6 641.5 371.2C631.6 394.5 626.9 411.9 626.6 426.3C626.5 433.0 626.6 433.2 630.0 436.0C634.5 439.7 639.0 440.4 648.5 439.0C665.5 436.4 688.1 425.0 713.0 406.6C722.3 399.7 731.0 391.6 731.0 390.0C731.0 389.5 733.1 384.7 735.6 379.3C738.2 373.9 742.0 365.7 744.2 361.0C753.7 340.8 755.6 336.8 761.5 324.5C765.0 317.4 771.7 303.5 776.4 293.7C781.1 283.9 785.0 275.5 785.0 275.0C785.0 274.4 785.5 274.0 786.0 274.0C786.5 274.0 787.0 273.5 787.0 272.8C787.0 272.1 791.5 262.6 796.9 251.5C802.4 240.5 812.9 219.1 820.3 204.0C827.7 188.9 839.0 165.7 845.5 152.5C852.0 139.3 863.7 115.4 871.5 99.4C879.3 83.4 887.2 68.7 888.9 66.7C893.2 61.9 902.3 56.0 909.0 53.7C915.5 51.5 927.4 51.1 934.0 53.0C940.6 54.8 946.6 61.2 947.5 67.3C948.4 73.4 944.8 87.9 941.3 92.1C938.8 95.2 919.0 132.2 907.1 156.0C900.1 170.0 888.7 194.1 881.6 209.5C868.0 239.2 841.7 291.8 833.2 306.0C830.5 310.7 828.4 314.7 828.6 314.9C828.9 315.2 841.9 303.2 862.1 284.0C865.3 281.0 868.5 278.4 869.2 278.2C869.9 278.0 871.2 277.0 872.2 276.0C873.1 274.9 874.8 274.0 875.9 274.0C877.1 274.0 878.0 273.4 878.0 272.7C878.0 270.3 901.8 257.1 914.1 252.7C927.0 248.1 935.4 246.7 950.0 246.7C961.4 246.7 965.0 247.1 973.1 249.3C988.6 253.4 999.7 259.8 1005.8 268.1C1007.6 270.5 1009.4 273.0 1009.9 273.6C1010.4 274.2 1011.6 278.8 1012.5 283.9C1014.1 292.1 1014.2 294.3 1013.1 302.8C1010.2 325.5 998.4 344.7 976.2 363.1C960.9 375.8 943.3 386.0 908.3 402.4C896.1 408.1 887.0 418.6 887.0 427.2C887.0 431.1 889.8 434.7 893.6 435.6C898.7 436.9 910.8 435.1 921.2 431.4C926.9 429.5 933.3 427.4 935.5 426.8C943.9 424.6 965.1 414.7 984.5 403.9C990.5 400.5 997.3 396.8 999.5 395.6C1014.2 387.6 1054.4 363.3 1056.3 361.3C1057.2 360.2 1060.4 354.5 1063.5 348.4C1073.3 329.1 1082.5 316.4 1099.2 299.6C1105.7 293.0 1111.0 287.3 1111.0 286.8C1111.0 286.4 1111.5 286.0 1112.1 286.0C1113.7 286.0 1127.0 276.0 1127.0 274.9C1127.0 274.4 1128.3 274.0 1130.0 274.0C1131.9 274.0 1133.0 273.5 1133.0 272.6C1133.0 271.5 1154.8 259.8 1163.5 256.3C1169.1 254.0 1179.6 251.0 1189.6 248.9C1197.5 247.1 1203.0 246.7 1217.5 246.6C1237.3 246.5 1242.7 247.5 1252.5 253.1C1272.7 264.5 1279.9 291.5 1269.7 318.0C1262.3 337.4 1242.3 357.6 1212.0 376.5C1192.2 388.8 1153.0 407.3 1129.3 415.6C1124.7 417.2 1121.0 419.1 1121.0 419.8C1121.0 422.0 1124.7 428.4 1127.7 431.2C1132.6 435.9 1139.6 438.3 1149.5 438.8C1154.5 439.0 1160.1 438.8 1162.0 438.3C1163.9 437.7 1167.5 437.6 1169.9 437.9C1173.1 438.3 1176.5 437.8 1181.9 436.2C1186.1 434.9 1193.3 432.7 1198.0 431.2C1202.7 429.8 1207.8 428.1 1209.5 427.4C1219.7 423.4 1223.6 421.7 1233.5 417.4C1248.2 411.1 1279.8 394.9 1294.0 386.4C1310.4 376.7 1319.8 372.0 1323.1 372.0C1326.4 372.0 1328.1 369.9 1330.9 361.9C1332.0 359.0 1335.6 349.8 1339.0 341.5C1342.4 333.2 1346.0 324.5 1347.0 322.0C1350.3 313.6 1353.7 305.5 1356.9 298.0C1362.4 285.2 1362.4 285.4 1370.0 268.5C1371.8 264.6 1377.6 251.6 1383.0 239.5C1388.4 227.4 1394.1 214.6 1395.8 211.0C1397.4 207.4 1399.7 202.2 1400.9 199.5C1402.1 196.8 1403.5 193.7 1404.0 192.8C1404.6 191.8 1410.4 179.0 1416.9 164.3C1423.4 149.5 1430.1 134.6 1431.8 131.0C1433.4 127.4 1435.8 122.2 1437.0 119.5C1438.2 116.8 1440.7 111.3 1442.5 107.5C1444.3 103.7 1448.8 93.5 1452.6 85.0C1458.4 71.8 1460.2 68.7 1464.5 64.5C1474.6 54.6 1487.7 50.1 1501.0 52.0C1504.9 52.6 1509.3 53.6 1510.8 54.4C1514.4 56.3 1518.6 60.9 1519.9 64.3C1522.6 71.4 1520.4 83.4 1514.3 94.0C1511.1 99.8 1481.8 158.6 1476.2 170.5C1472.9 177.7 1464.3 196.3 1457.0 212.0C1449.7 227.7 1438.5 251.2 1432.0 264.2C1425.5 277.3 1420.4 288.0 1420.7 288.0C1421.0 288.0 1422.9 286.7 1424.9 285.2C1430.9 280.5 1446.9 269.9 1452.4 266.9C1463.7 260.9 1475.8 255.0 1480.6 253.1C1496.5 247.0 1521.0 244.3 1533.0 247.4C1542.0 249.7 1551.0 254.1 1557.9 259.5C1563.8 264.2 1570.0 271.0 1570.0 272.9C1570.0 273.5 1570.4 274.0 1570.8 274.0C1572.0 274.0 1576.6 283.5 1577.8 288.5C1581.6 303.3 1580.1 315.3 1571.0 343.0C1564.1 364.0 1560.6 372.5 1555.1 381.8C1550.9 388.9 1551.0 390.7 1555.8 391.9C1560.7 393.3 1565.3 393.6 1566.7 392.7C1567.3 392.3 1568.1 392.4 1568.4 392.9C1569.5 394.7 1589.1 391.5 1603.0 387.3C1607.7 385.9 1612.0 384.4 1612.5 383.9C1613.0 383.5 1615.4 382.7 1617.7 382.1C1623.7 380.5 1627.2 377.1 1629.4 370.9C1639.7 341.3 1656.8 313.1 1676.5 293.5C1691.1 278.8 1696.7 274.0 1699.2 274.0C1700.2 274.0 1701.0 273.4 1701.0 272.8C1701.0 271.3 1715.9 262.3 1725.0 258.2C1742.7 250.3 1760.4 246.7 1781.5 246.6C1800.4 246.6 1811.3 248.8 1828.0 256.2C1834.6 259.1 1845.8 266.9 1848.9 270.7C1850.3 272.5 1852.0 274.0 1852.5 274.0C1853.0 274.0 1854.3 275.5 1855.2 277.3C1860.7 287.8 1862.4 292.4 1863.8 300.9C1866.0 313.9 1864.4 330.1 1859.4 346.7C1854.4 363.0 1854.4 363.4 1857.1 365.4C1858.4 366.3 1860.4 367.0 1861.7 367.0C1862.9 367.0 1864.2 367.4 1864.5 368.0C1865.5 369.7 1875.7 369.1 1881.9 367.0C1888.7 364.7 1898.6 359.2 1904.7 354.4C1907.0 352.5 1909.3 351.0 1909.9 351.0C1910.5 351.0 1911.0 350.3 1911.0 349.5C1911.0 348.7 1911.6 348.0 1912.2 348.0C1914.3 348.0 1936.9 327.0 1947.9 314.9C1963.1 298.1 1964.4 297.0 1968.5 297.0C1971.1 297.0 1972.8 297.8 1975.4 300.5C1977.4 302.4 1979.4 304.0 1980.0 304.0C1980.6 304.0 1981.0 299.6 1981.0 292.2C1981.1 273.0 1983.5 265.4 1992.3 257.3C2000.5 249.7 2016.8 247.7 2028.5 252.9C2035.2 255.9 2037.6 258.3 2040.2 264.9C2042.2 270.0 2042.4 272.5 2042.7 294.5C2043.1 320.1 2043.3 323.0 2045.3 323.0C2046.0 323.0 2050.4 319.7 2055.1 315.8C2059.8 311.8 2071.7 301.8 2081.5 293.5C2091.4 285.2 2100.5 277.5 2101.8 276.2C2103.0 275.0 2104.4 274.0 2104.9 274.0C2105.3 274.0 2107.8 271.9 2110.4 269.4C2126.9 253.7 2147.4 247.2 2161.3 253.4C2170.2 257.3 2173.5 263.7 2171.0 272.4C2169.2 278.8 2164.4 284.0 2146.5 299.0C2137.7 306.3 2126.4 315.8 2121.5 320.0C2111.9 328.2 2094.9 342.5 2067.7 365.3C2050.8 379.4 2050.8 379.4 2051.3 382.9C2051.6 384.9 2052.6 395.5 2053.5 406.5C2055.5 432.0 2055.6 432.4 2058.5 435.8C2061.6 439.5 2065.6 440.3 2073.9 438.9C2085.9 436.8 2094.8 432.7 2118.8 418.5C2123.9 415.5 2134.4 408.1 2150.4 396.5C2182.0 373.5 2181.4 373.8 2188.6 373.2C2196.8 372.6 2200.4 374.1 2203.5 379.5C2207.4 386.0 2206.3 397.8 2201.3 405.6C2200.5 406.8 2200.1 408.2 2200.2 408.7C2200.4 409.2 2196.7 413.5 2192.0 418.1C2178.8 431.1 2132.7 462.1 2106.3 475.6C2084.2 486.9 2065.8 492.0 2047.0 492.0C2036.4 492.0 2025.0 489.6 2017.2 485.8C2010.4 482.4 2001.8 473.9 1998.1 467.0C1993.9 459.1 1990.3 444.6 1989.4 432.1C1989.0 426.5 1988.5 422.0 1988.1 422.0C1987.8 422.0 1985.5 424.0 1983.0 426.4C1976.6 432.5 1922.6 478.8 1916.0 483.8C1899.0 496.7 1876.7 494.2 1869.9 478.6C1867.4 472.7 1868.2 468.6 1873.0 462.5C1874.6 460.4 1876.0 458.2 1876.0 457.6C1876.0 457.0 1877.2 455.9 1878.8 455.3C1880.3 454.7 1891.8 445.1 1904.5 434.0C1931.8 410.1 1929.6 412.0 1944.0 399.6C1950.3 394.2 1960.2 385.4 1965.9 380.1C1971.6 374.8 1976.9 370.4 1977.6 370.2C1978.3 370.0 1979.2 368.9 1979.7 367.7C1980.5 365.3 1980.6 329.2 1979.8 328.4C1978.5 327.2 1975.9 329.6 1975.0 332.9C1974.5 335.0 1972.6 338.7 1970.8 341.1C1967.4 345.9 1938.5 376.6 1925.5 389.4C1909.1 405.5 1892.8 416.3 1880.0 419.6C1866.8 423.0 1850.4 420.1 1839.4 412.6C1835.7 410.1 1835.4 410.0 1834.2 411.7C1833.5 412.7 1830.1 417.3 1826.7 422.0C1807.7 448.3 1776.8 471.7 1747.0 482.4C1724.4 490.6 1692.1 494.2 1676.1 490.5C1656.7 485.9 1639.2 474.4 1629.0 459.5C1625.0 453.6 1621.1 443.0 1620.3 436.1C1620.0 432.7 1619.5 430.0 1619.3 430.0C1619.1 430.0 1612.3 432.2 1604.2 435.0C1575.0 444.8 1547.1 447.1 1530.9 441.1C1526.0 439.2 1523.5 437.8 1517.7 433.8C1516.1 432.7 1515.5 432.9 1513.4 435.5C1502.9 447.9 1486.1 463.0 1473.0 471.7C1445.2 490.3 1407.5 499.7 1376.0 496.0ZM1437.0 431.5C1466.1 422.8 1496.7 393.1 1507.9 362.8C1515.1 343.4 1515.2 320.7 1508.2 308.7C1504.3 302.1 1494.3 299.3 1480.8 301.0C1456.6 303.9 1433.9 316.5 1413.3 338.4C1399.9 352.6 1390.9 368.4 1386.4 385.4C1384.3 393.2 1384.0 412.5 1385.9 416.6C1390.4 426.4 1391.8 428.4 1395.3 430.7C1400.7 434.1 1405.9 435.0 1418.1 434.4C1425.4 434.1 1431.3 433.2 1437.0 431.5ZM1738.4 431.1C1753.0 425.5 1768.7 412.2 1779.1 396.7C1793.1 375.7 1798.5 356.2 1796.1 334.8C1794.7 322.6 1792.1 315.5 1787.3 310.8C1782.3 305.9 1776.5 304.0 1766.9 304.0C1756.5 304.0 1750.1 305.4 1740.5 310.0C1717.5 320.7 1697.6 345.6 1690.5 372.6C1686.1 389.2 1688.3 412.4 1695.4 423.4C1699.0 429.1 1704.2 432.9 1709.9 434.1C1716.8 435.6 1730.5 434.1 1738.4 431.1ZM1135.3 370.7C1139.1 368.5 1142.4 366.1 1142.7 365.3C1143.0 364.6 1143.6 364.3 1144.1 364.6C1144.6 364.9 1154.1 359.1 1165.2 351.7C1176.4 344.3 1187.5 337.1 1190.0 335.7C1192.5 334.3 1196.0 331.7 1197.8 330.0C1199.7 328.3 1202.4 326.3 1204.0 325.5C1210.6 322.1 1219.0 308.9 1219.0 301.9C1219.0 299.2 1218.2 297.4 1216.2 295.2C1211.9 290.6 1206.9 289.7 1195.6 291.4C1169.8 295.2 1148.5 314.4 1129.2 351.0C1124.3 360.4 1117.0 377.6 1117.0 379.9C1117.0 381.1 1120.7 379.3 1135.3 370.7Z"/>
</svg>
